<?xml version="1.0" encoding="UTF-8"?>
<svg id="Layer_1" xmlns="http://www.w3.org/2000/svg" version="1.1" viewBox="0 0 24 24">
  <!-- Generator: Adobe Illustrator 29.8.1, SVG Export Plug-In . SVG Version: 2.1.1 Build 2)  -->
  <path d="M16.91,3.45l-.23-.92c-.04-.14-.11-.27-.21-.37l-.83-.83c-.1-.1-.23-.18-.37-.21l-.92-.23c-.21-.05-.42,0-.58.16L1.94,12.88l1.46.37,1.15,1.15.37,1.46,11.84-11.84c.15-.15.21-.37.16-.58Z"/>
  <path d="M2.57,15.65l-.41-.41-.74-.19s-.04-.01-.06-.02l-.5,1.56c-.05.15.03.31.18.36.06.02.12.02.18,0l1.56-.5s-.01-.04-.02-.06l-.19-.74Z"/>
  <path d="M21.95,6.8h-4.98l-2.21,2.21h6.18v7.02h-4.07c-.44,0-.8.36-.8.8v4.07h-7.02v-6.18l-2.21,2.21v4.98c0,.67.54,1.21,1.21,1.21h8.97c.43,0,.84-.17,1.14-.47l4.54-4.54c.3-.3.47-.71.47-1.14v-8.97c0-.67-.54-1.21-1.21-1.21Z"/>
</svg>