<?xml version="1.0" encoding="UTF-8"?>
<svg id="Layer_1" xmlns="http://www.w3.org/2000/svg" version="1.1" viewBox="0 0 24 24">
  <!-- Generator: Adobe Illustrator 29.8.1, SVG Export Plug-In . SVG Version: 2.1.1 Build 2)  -->
  <defs>
    <style>
      .st0 {
        fill: none;
        stroke: #000;
        stroke-miterlimit: 10;
        stroke-width: 2px;
      }
    </style>
  </defs>
  <polyline class="st0" points="8.39 13.5 2.5 13.5 2.5 2.5 13.5 2.5 13.5 8.57"/>
  <path class="st0" d="M8.39,13.5"/>
  <path class="st0" d="M13.5,13.5"/>
  <path class="st0" d="M13.5,13.5"/>
  <path class="st0" d="M13.5,8.57"/>
  <polyline class="st0" points="15.39 10.5 21.5 10.5 21.5 21.5 10.5 21.5 10.5 15.46"/>
  <path class="st0" d="M15.39,10.5"/>
  <path class="st0" d="M10.5,10.5"/>
  <path class="st0" d="M10.5,10.5"/>
  <path class="st0" d="M10.5,15.46"/>
  <polygon points="10.42 10.51 10.5 6.76 9.49 8.77 5.71 5 4.91 5.8 8.68 9.57 6.67 10.59 10.42 10.51"/>
  <polygon points="13.58 13.58 13.5 17.33 14.51 15.32 18.29 19.09 19.09 18.29 15.32 14.51 17.33 13.5 13.58 13.58"/>
</svg>